<svg width="169" height="57" viewBox="0 0 169 57" fill="none" xmlns="http://www.w3.org/2000/svg">
<path d="M6.99 29.15V48.23C6.99 51.03 7.63 53.23 8.91 54.83C10.19 56.41 12.14 57.2 14.76 57.2C16.7 57.2 18.51 56.71 20.19 55.73C21.87 54.73 23.38 53.35 24.72 51.59V29.15H27.6V59H26.01C25.45 59 25.16 58.74 25.14 58.22L24.87 53.78C23.49 55.5 21.89 56.88 20.07 57.92C18.27 58.96 16.26 59.48 14.04 59.48C12.38 59.48 10.93 59.22 9.69 58.7C8.45 58.18 7.42 57.43 6.6 56.45C5.78 55.47 5.16 54.29 4.74 52.91C4.32 51.53 4.11 49.97 4.11 48.23V29.15H6.99ZM37.3209 69.56V29.15H38.8809C39.1409 29.15 39.3509 29.21 39.5109 29.33C39.6709 29.43 39.7609 29.62 39.7809 29.9L40.0509 34.52C41.3709 32.72 42.9109 31.29 44.6709 30.23C46.4509 29.17 48.4409 28.64 50.6409 28.64C54.3209 28.64 57.1809 29.91 59.2209 32.45C61.2609 34.99 62.2809 38.8 62.2809 43.88C62.2809 46.06 61.9909 48.1 61.4109 50C60.8509 51.88 60.0209 53.52 58.9209 54.92C57.8209 56.3 56.4609 57.39 54.8409 58.19C53.2409 58.99 51.3909 59.39 49.2909 59.39C47.2509 59.39 45.4909 59.02 44.0109 58.28C42.5309 57.54 41.2509 56.44 40.1709 54.98V69.56H37.3209ZM49.8309 30.95C47.8509 30.95 46.0509 31.47 44.4309 32.51C42.8309 33.53 41.4109 34.96 40.1709 36.8V52.46C41.3109 54.18 42.5709 55.39 43.9509 56.09C45.3509 56.79 46.9409 57.14 48.7209 57.14C50.4809 57.14 52.0209 56.82 53.3409 56.18C54.6609 55.54 55.7609 54.64 56.6409 53.48C57.5409 52.3 58.2109 50.9 58.6509 49.28C59.1109 47.64 59.3409 45.84 59.3409 43.88C59.3409 39.44 58.5209 36.18 56.8809 34.1C55.2609 32 52.9109 30.95 49.8309 30.95ZM73.1203 15.35V59H70.2703V15.35H73.1203ZM102.719 59C102.119 59 101.749 58.72 101.609 58.16L101.189 54.35C100.369 55.15 99.5486 55.87 98.7286 56.51C97.9286 57.15 97.0886 57.69 96.2086 58.13C95.3286 58.57 94.3786 58.9 93.3586 59.12C92.3386 59.36 91.2186 59.48 89.9986 59.48C88.9786 59.48 87.9886 59.33 87.0286 59.03C86.0686 58.73 85.2186 58.27 84.4786 57.65C83.7386 57.03 83.1386 56.24 82.6786 55.28C82.2386 54.3 82.0186 53.13 82.0186 51.77C82.0186 50.51 82.3786 49.34 83.0986 48.26C83.8186 47.18 84.9386 46.24 86.4586 45.44C87.9986 44.64 89.9686 44 92.3686 43.52C94.7886 43.04 97.6886 42.76 101.069 42.68V39.56C101.069 36.8 100.469 34.68 99.2686 33.2C98.0886 31.7 96.3286 30.95 93.9886 30.95C92.5486 30.95 91.3186 31.15 90.2986 31.55C89.2986 31.95 88.4486 32.39 87.7486 32.87C87.0486 33.35 86.4786 33.79 86.0386 34.19C85.5986 34.59 85.2286 34.79 84.9286 34.79C84.5286 34.79 84.2286 34.61 84.0286 34.25L83.5186 33.38C85.0786 31.82 86.7186 30.64 88.4386 29.84C90.1586 29.04 92.1086 28.64 94.2886 28.64C95.8886 28.64 97.2886 28.9 98.4886 29.42C99.6886 29.92 100.679 30.65 101.459 31.61C102.259 32.55 102.859 33.7 103.259 35.06C103.659 36.4 103.859 37.9 103.859 39.56V59H102.719ZM90.7186 57.41C91.8786 57.41 92.9386 57.29 93.8986 57.05C94.8786 56.79 95.7786 56.44 96.5986 56C97.4386 55.54 98.2186 55 98.9386 54.38C99.6586 53.76 100.369 53.09 101.069 52.37V44.6C98.2286 44.68 95.7786 44.9 93.7186 45.26C91.6786 45.6 89.9886 46.07 88.6486 46.67C87.3286 47.27 86.3486 47.99 85.7086 48.83C85.0886 49.65 84.7786 50.59 84.7786 51.65C84.7786 52.65 84.9386 53.52 85.2586 54.26C85.5986 54.98 86.0386 55.58 86.5786 56.06C87.1186 56.52 87.7486 56.86 88.4686 57.08C89.1886 57.3 89.9386 57.41 90.7186 57.41ZM112.848 59V29.15H114.408C114.928 29.15 115.228 29.4 115.308 29.9L115.578 34.4C116.938 32.68 118.518 31.3 120.318 30.26C122.138 29.2 124.158 28.67 126.378 28.67C128.018 28.67 129.458 28.93 130.698 29.45C131.958 29.97 132.998 30.72 133.818 31.7C134.638 32.68 135.258 33.86 135.678 35.24C136.098 36.62 136.308 38.18 136.308 39.92V59H133.458V39.92C133.458 37.12 132.818 34.93 131.538 33.35C130.258 31.75 128.298 30.95 125.658 30.95C123.698 30.95 121.878 31.46 120.198 32.48C118.518 33.48 117.018 34.86 115.698 36.62V59H112.848ZM156.559 28.67C158.239 28.67 159.789 28.96 161.209 29.54C162.649 30.12 163.889 30.97 164.929 32.09C165.989 33.19 166.809 34.55 167.389 36.17C167.989 37.79 168.289 39.65 168.289 41.75C168.289 42.19 168.219 42.49 168.079 42.65C167.959 42.81 167.759 42.89 167.479 42.89H145.909V43.46C145.909 45.7 146.169 47.67 146.689 49.37C147.209 51.07 147.949 52.5 148.909 53.66C149.869 54.8 151.029 55.66 152.389 56.24C153.749 56.82 155.269 57.11 156.949 57.11C158.449 57.11 159.749 56.95 160.849 56.63C161.949 56.29 162.869 55.92 163.609 55.52C164.369 55.1 164.969 54.73 165.409 54.41C165.849 54.07 166.169 53.9 166.369 53.9C166.629 53.9 166.829 54 166.969 54.2L167.749 55.16C167.269 55.76 166.629 56.32 165.829 56.84C165.049 57.36 164.169 57.81 163.189 58.19C162.229 58.55 161.189 58.84 160.069 59.06C158.969 59.28 157.859 59.39 156.739 59.39C154.699 59.39 152.839 59.04 151.159 58.34C149.479 57.62 148.039 56.58 146.839 55.22C145.639 53.86 144.709 52.2 144.049 50.24C143.409 48.26 143.089 46 143.089 43.46C143.089 41.32 143.389 39.35 143.989 37.55C144.609 35.73 145.489 34.17 146.629 32.87C147.789 31.55 149.199 30.52 150.859 29.78C152.539 29.04 154.439 28.67 156.559 28.67ZM156.589 30.8C155.049 30.8 153.669 31.04 152.449 31.52C151.229 32 150.169 32.69 149.269 33.59C148.389 34.49 147.669 35.57 147.109 36.83C146.569 38.09 146.209 39.5 146.029 41.06H165.709C165.709 39.46 165.489 38.03 165.049 36.77C164.609 35.49 163.989 34.41 163.189 33.53C162.389 32.65 161.429 31.98 160.309 31.52C159.189 31.04 157.949 30.8 156.589 30.8Z" transform="translate(-4 -13)" fill="black"/>
<path d="M9.52 10.2375H10.57L16.5375 21H15.3475C15.2192 21 15.1025 20.965 14.9975 20.895C14.9042 20.8133 14.8283 20.7142 14.77 20.5975L10.5525 12.9675C10.4475 12.7692 10.3542 12.5825 10.2725 12.4075C10.1908 12.2325 10.1208 12.0517 10.0625 11.865C10.0042 12.0517 9.93417 12.2383 9.8525 12.425C9.7825 12.6 9.695 12.7808 9.59 12.9675L5.39 20.5975C5.33167 20.6908 5.25583 20.7842 5.1625 20.8775C5.06917 20.9592 4.94667 21 4.795 21H3.5525L9.52 10.2375Z" transform="translate(164.835 -13.5801) rotate(30)" fill="black"/>
</svg>
